# xmcd
#
# Track frame offsets:
#	183
#	21358
#	37075
#	52433
#	70420
#	94213
#	109275
#	126623
#	143398
#	161895
#	177345
#	191683
#
# Disc length: 2823 seconds
#
# Revision: 0
# Processed by: cddbd v1.4PL0 Copyright (c) Steve Scherf et al.
# Submitted via: dBpowerAMP V4.0
#
DISCID=bf0b050c
DTITLE=Prentiss - Love all Ways
DYEAR=1900
DGENRE=
TTITLE0=One Man
TTITLE1=My Baby
TTITLE2=So Close Tonight
TTITLE3=Love is the Answer
TTITLE4=In Your Eyes
TTITLE5=You Better Stop
TTITLE6=Blue
TTITLE7=Sweet Sister
TTITLE8=Mystery
TTITLE9=You can Stay
TTITLE10=So close Tonight
TTITLE11=Worried Little Boy
EXTD=Dmitry
EXTT0=
EXTT1=
EXTT2=
EXTT3=
EXTT4=
EXTT5=
EXTT6=
EXTT7=
EXTT8=
EXTT9=
EXTT10=
EXTT11=
PLAYORDER=
